<svg viewBox="0 0 87 82" fill="none" xmlns="http://www.w3.org/2000/svg">
<path fill-rule="evenodd" clip-rule="evenodd" d="M69.9816 0C72.0458 3.23738e-06 73.7198 1.67375 73.7199 3.73828V24.0518L85.5138 33.4873C86.2331 34.0628 86.35 35.1127 85.7746 35.832C85.1991 36.5513 84.1492 36.6682 83.4299 36.0928L77.8595 31.6357V78.6641H84.4719C85.3929 78.6641 86.1396 79.411 86.1398 80.332C86.1398 81.2532 85.3931 82 84.4719 82H1.66811C0.746973 81.9999 0.000136944 81.2532 0.000136944 80.332C0.000344137 79.411 0.747101 78.6641 1.66811 78.6641H8.28041V31.6357L2.7101 36.0928C1.99076 36.668 0.940773 36.5513 0.365371 35.832C-0.209933 35.1127 -0.0931263 34.0627 0.626114 33.4873L34.2687 6.57324C39.4143 2.45697 46.7257 2.457 51.8713 6.57324L55.8927 9.79004V3.73828C55.8928 1.67378 57.5669 4.47513e-05 59.631 0H69.9816ZM49.7873 9.17773C45.8601 6.03638 40.2798 6.03621 36.3527 9.17773L11.6164 28.9668V78.6641H28.9816V59.6309C28.9816 56.7507 28.978 54.4228 29.2238 52.5947C29.476 50.7186 30.0182 49.1208 31.2892 47.8496L31.5314 47.6201C32.761 46.5125 34.2747 46.0216 36.0334 45.7852C37.8615 45.5394 40.1901 45.543 43.0705 45.543C45.9506 45.543 48.2786 45.5394 50.1066 45.7852C51.9533 46.0334 53.5299 46.5624 54.7912 47.791L54.8517 47.8496C56.1226 49.1208 56.664 50.7186 56.9162 52.5947C57.1619 54.4228 57.1593 56.7507 57.1593 59.6309V78.6641H74.5236V28.9668L49.7873 9.17773ZM43.0705 48.8789C40.0958 48.8789 38.0319 48.8819 36.4777 49.0908C34.9717 49.2933 34.1955 49.6612 33.6476 50.209L33.4513 50.4258C33.011 50.9621 32.7076 51.7211 32.5304 53.0391C32.3215 54.5932 32.3175 56.6564 32.3175 59.6309V78.6641H53.8224V59.6309C53.8224 56.6564 53.8194 54.5932 53.6105 53.0391C53.4081 51.5331 53.0401 50.757 52.4923 50.209C51.9443 49.6612 51.1683 49.2933 49.6623 49.0908C48.1081 48.8819 46.0449 48.8789 43.0705 48.8789ZM43.0705 18.6309C48.5649 18.631 53.0187 23.0858 53.0187 28.5801C53.0185 34.0743 48.5647 38.5282 43.0705 38.5283C37.5761 38.5283 33.1225 34.0744 33.1222 28.5801C33.1222 23.0857 37.576 18.6309 43.0705 18.6309ZM43.0705 21.9668C39.4184 21.9668 36.4582 24.9281 36.4582 28.5801C36.4584 32.2319 39.4186 35.1924 43.0705 35.1924C46.7223 35.1923 49.6825 32.2319 49.6828 28.5801C49.6828 24.9282 46.7224 21.9669 43.0705 21.9668ZM59.631 3.33594C59.4091 3.33598 59.2287 3.51637 59.2287 3.73828V12.0186C59.2287 12.1567 59.2096 12.2906 59.1779 12.4189L70.384 21.3828V3.73828C70.3839 3.51635 70.2036 3.33594 69.9816 3.33594H59.631Z" fill="currentColor"/>
</svg>
